<?xml version="1.0" encoding="UTF-8" standalone="no"?>
<svg
   xmlns:dc="http://purl.org/dc/elements/1.1/"
   xmlns:cc="http://creativecommons.org/ns#"
   xmlns:rdf="http://www.w3.org/1999/02/22-rdf-syntax-ns#"
   xmlns:svg="http://www.w3.org/2000/svg"
   xmlns="http://www.w3.org/2000/svg"
   xmlns:sodipodi="http://sodipodi.sourceforge.net/DTD/sodipodi-0.dtd"
   xmlns:inkscape="http://www.inkscape.org/namespaces/inkscape"
   width="64mm"
   height="64mm"
   viewBox="0 0 64 64"
   version="1.1"
   id="svg8"
   sodipodi:docname="favicon3.svg"
   inkscape:version="1.0.2 (e86c870879, 2021-01-15)">
  <defs
     id="defs2" />
  <sodipodi:namedview
     id="base"
     pagecolor="#ffffff"
     bordercolor="#666666"
     borderopacity="1.0"
     inkscape:pageopacity="0.0"
     inkscape:pageshadow="2"
     inkscape:zoom="3.5852889"
     inkscape:cx="104.73043"
     inkscape:cy="151.92343"
     inkscape:document-units="mm"
     inkscape:current-layer="layer1"
     inkscape:document-rotation="0"
     showgrid="false"
     inkscape:window-width="1801"
     inkscape:window-height="1035"
     inkscape:window-x="465"
     inkscape:window-y="168"
     inkscape:window-maximized="0"
     inkscape:snap-global="false" />
  <metadata
     id="metadata5">
    <rdf:RDF>
      <cc:Work
         rdf:about="">
        <dc:format>image/svg+xml</dc:format>
        <dc:type
           rdf:resource="http://purl.org/dc/dcmitype/StillImage" />
        <dc:title></dc:title>
      </cc:Work>
    </rdf:RDF>
  </metadata>
  <g
     inkscape:label="Layer 1"
     inkscape:groupmode="layer"
     id="layer1">
    <path
       id="path76"
       style="fill:#ff0000;stroke-width:0.167091"
       d="M 8.3902489,63.532628 C 5.4146652,63.300834 0.89909242,61.950169 0.27576016,59.023709 2.1844585,59.397022 2.9564992,58.80341 1.1301471,57.524581 -0.64016002,54.332444 4.3328603,57.961642 4.3894577,56.774454 3.3247583,53.13017 2.4417612,49.180634 3.9567535,45.517699 4.3728917,43.178292 7.6482158,39.25448 5.697145,37.773171 2.4636166,37.981996 0.34844359,34.582497 2.2940835,31.828782 4.2334347,28.021726 6.1979277,24.175367 6.9871358,19.928869 8.278611,15.44243 8.044965,10.051464 11.795597,6.700815 14.593061,4.1579225 18.581152,3.8883862 21.903732,5.4202997 c 3.90069,-0.3566038 -2.724361,-3.2804312 0.76132,-4.023505 2.654614,-1.2806804 6.632954,-1.9563081 6.987679,2.0845716 1.579961,2.0825328 -0.222043,3.1913384 -2.13214,2.8352037 -0.909145,2.9345041 3.458413,5.102613 4.545534,7.881256 2.008777,2.787818 4.574595,5.461751 7.999611,6.361668 1.698588,1.847993 4.241477,3.164024 5.22514,-0.191011 2.721347,-2.43424 2.405734,-6.649997 -1.547093,-7.322204 -2.562856,-0.303756 -1.624406,-4.3309622 -4.721455,-2.715883 -3.305842,1.967185 -5.254581,-2.2928318 -8.616799,-2.3120987 -3.068516,-0.3149624 -1.001294,-2.215474 0.913907,-2.225 2.346507,-1.5133045 5.088396,-2.1378226 7.362078,-4.135967 2.257535,-1.28452712 4.002184,0.630623 5.97209,-1.09708756 2.434712,-0.26473023 3.390635,1.97361376 5.707313,0.66959516 1.669,0.088127 3.54779,2.084294 4.158039,1.7935336 C 51.986603,5.4729466 52.514438,-0.39714591 49.4139,1.8943256 47.038349,3.4526928 46.227708,-1.076522 43.822686,1.517562 41.818784,2.6758166 39.209304,0.20452257 37.495254,2.9397042 c -2.279277,1.8941467 -5.528575,2.2263562 -7.800265,3.8170451 -1.083649,1.9065511 3.857991,0.2493496 3.650373,2.0078279 2.219908,1.1878593 4.210719,2.7965578 6.444699,0.7372309 1.270767,0.8832679 3.253391,-0.5660418 2.461808,2.0678829 0.362516,2.282224 3.843088,0.637842 4.712935,3.18995 2.430911,1.323271 4.320874,-2.135497 7.03468,-1.824188 1.320982,-0.810084 1.166742,-2.227468 2.976815,-1.519186 3.077978,-0.589423 2.570672,-4.2530735 0.654016,-5.2437463 1.010754,-1.7733152 -2.531588,-3.9548302 -2.134131,-3.0717845 1.986169,1.3667689 3.326183,4.0371732 4.308535,5.9156802 -0.811283,3.1175136 -4.924965,2.2391396 -6.456085,4.6261446 -3.254238,-0.05583 -6.030828,2.55831 -3.42519,5.511224 0.496945,2.43991 4.283294,4.784438 3.70952,6.649577 -3.609956,0.79847 0.690539,2.045797 1.371031,3.282673 -0.92465,0.924091 2.105789,1.048817 -0.349376,1.78196 -3.413892,1.237665 3.96298,2.505943 0.283445,3.910958 -0.740729,-0.346842 2.310869,1.087457 0.690434,2.049943 1.50383,0.582813 2.037055,2.65279 0.145523,3.081484 1.797934,-0.224626 3.223187,2.20341 0.792931,2.412192 2.524293,0.323221 5.547072,3.45484 1.705665,4.456854 -3.916247,2.132976 5.87463,2.357061 2.521388,4.189226 -3.439572,-0.427133 -0.925763,2.078937 -0.223375,3.527438 1.192406,0.210624 4.991183,0.125461 2.090934,1.51694 -1.998766,0.943784 -4.665429,1.359464 -6.384718,1.494549 0.617844,3.905977 -4.610542,-0.743277 -4.83634,1.08942 1.012465,3.557043 -4.973517,1.063913 -6.57414,3.14087 -3.527171,-0.663935 -6.915315,1.524552 -10.486421,0.747753 -4.213956,0.09211 -8.443395,0.09794 -12.630145,0.644207 -3.16107,2.083363 -6.809624,-1.409052 -10.047057,0.404272 -1.072381,0.308298 -2.2537558,0.435954 -3.3124941,-0.0015 z M 39.778971,61.986662 c 0.161626,-3.654381 -3.402894,-3.818857 -6.079768,-3.207955 -3.184195,0.138227 -6.37079,0.214569 -9.554534,0.363927 -1.024834,4.432365 3.913611,2.60282 6.461815,2.942859 3.057684,5.48e-4 6.115895,-0.01604 9.172487,-0.09883 z M 23.51463,59.87232 c -0.356369,-0.268277 0.244791,1.054299 0,0 z m 0.170078,-1.56394 c 2.02836,-1.236424 -0.07852,-5.39168 0.450009,-7.726141 -0.254278,-4.665569 -0.320437,-6.269036 1.52615,-10.715866 2.590606,-4.390332 8.198759,-4.208368 11.020465,-0.32134 1.808846,3.372012 2.167676,4.045506 2.649232,7.733134 0.218818,3.587171 0.326079,7.181568 0.300661,10.775469 3.841982,0.508548 4.548456,-4.871647 4.979495,-7.879391 C 45.88138,44.572391 41.779733,39.84161 39.254315,35.264333 37.237912,32.907912 37.791214,27.181316 33.09481,28.962616 25.577143,29.56068 17.757504,30.859758 11.404564,35.196109 8.8155193,36.558042 6.3494081,37.400301 6.454856,40.765318 4.7497226,44.888827 2.5307634,49.427455 4.2362683,53.93781 c 0.6222487,2.835038 2.9066033,5.22028 5.2412517,5.346561 -0.3329472,-1.761682 1.560529,-3.109489 1.623874,-0.567654 -0.01497,1.53031 0.301441,-2.08007 1.274943,-0.239843 0.115337,0.643101 0.893504,-1.554158 1.816055,0.280432 1.487138,0.388699 0.04791,-3.934234 1.837514,-1.087978 0.775656,0.509162 2.644135,1.037262 2.032108,-1.220577 0.429256,-1.477643 1.261019,2.00059 1.752592,0.395123 0.635338,2.228772 2.218768,-0.697918 1.864895,1.810928 -0.09028,2.7331 1.573984,-2.062761 2.005207,-0.346422 z m -9.510606,-9.576502 c -1.741017,0.31208 -7.1900637,-0.05815 -3.948888,-2.004717 1.34864,-1.670673 0.623283,-5.553452 1.423183,-8.047602 0.7412,-3.809356 6.531626,-4.913232 8.085707,-1.116501 2.006386,2.87058 -0.820253,7.438615 1.224541,9.506934 2.288641,0.41678 0.06019,2.692316 -1.567944,1.743201 -1.739031,-0.01437 -3.477846,-0.05338 -5.216599,-0.08131 z m 7.216204,-0.498715 c -3.078012,-1.422367 -6.622941,-0.279955 -9.877453,-0.891543 -3.8239779,0.538786 2.085174,0.992753 3.136957,0.878748 2.245631,0.08138 4.494984,0.116421 6.740496,0.01279 z m -2.705642,-3.115278 c 1.975552,-3.054487 -4.39146,-4.750187 -3.148959,-0.773909 -1.201431,2.949242 3.566198,4.091835 3.148959,0.773909 z m -3.54049,-0.722473 c 1.338548,-4.314538 -4.831099,-2.088507 -2.614214,1.381178 1.279889,2.125531 3.019644,0.523157 2.614214,-1.381178 z m 3.489455,-4.014595 c 0.95751,-2.495148 -3.709402,-4.788426 -2.920049,-0.988918 -1.54808,2.245754 3.712111,3.524828 2.920049,0.988918 z m -3.297889,0.262077 c 0.479449,-1.399508 0.245209,-5.359184 -1.58875,-2.519391 -2.050645,1.292401 0.46058,5.28588 1.58875,2.519391 z m 25.923992,-7.091808 c 2.883688,-1.630674 -4.753199,-2.571202 -0.456432,-3.888151 0.288571,-1.009127 -1.111969,-2.269865 1.154184,-2.167381 1.816232,-0.753546 0.95423,-3.244437 -0.312425,-1.078735 -2.201408,1.257657 -6.163341,2.580176 -3.376306,5.645604 0.418731,1.450461 1.524013,3.675002 2.990979,1.488663 z M 8.0489036,30.175168 c 1.3846092,-3.009038 -4.7859933,0.27601 -0.6883986,0.232673 0.252244,-0.0067 0.4652011,-0.131338 0.6883986,-0.232673 z M 37.584778,23.631581 c -0.09324,-2.965716 -5.050468,0.820508 -1.132553,0.488467 0.374852,0.04489 1.176389,0.114474 1.132553,-0.488467 z M 24.248441,23.198333 c 2.757757,-2.665792 -5.256426,-1.253508 -1.293352,0.300313 0.449142,0.03003 0.898992,-0.09014 1.293352,-0.300313 z M 12.842178,21.605862 c 1.53645,-2.960317 -5.1118939,-1.961875 -1.673101,-0.06358 0.497884,0.253121 1.18949,0.496594 1.673101,0.06358 z m 4.160316,-5.273376 c -0.756428,-2.01605 -3.881886,0.660729 -0.948659,0.395126 0.208356,-0.05492 1.06177,0.163843 0.948659,-0.395126 z M 31.944391,15.98269 c 0.565843,-3.308161 -5.039298,0.410339 -1.150616,0.422451 0.380038,0.01667 0.963501,0.01221 1.150616,-0.422451 z m -9.031482,-3.768602 c -1.468007,-3.2850707 -3.23334,2.06575 0,0 z m -9.647603,-1.433157 c 2.068633,-2.0782209 -3.6984819,-0.152826 -0.387538,0.113565 0.128815,-0.03813 0.25907,-0.07518 0.387538,-0.113565 z m 6.311326,-4.9523921 c -0.236178,-1.9300042 -4.269954,0.051656 -1.106992,0.213772 l 0.572779,-0.013347 z"
       sodipodi:nodetypes="ccccccccccccccccccccccccccccccccccccccccccccccccccccccccccccccccccccccccccccccccccccccscccccsssccssccccccccccccccccccccccccccccccccccccccccccccc" />
  </g>
</svg>
