<?xml version="1.0" encoding="UTF-8" standalone="no"?>
<svg
   xmlns:dc="http://purl.org/dc/elements/1.1/"
   xmlns:cc="http://creativecommons.org/ns#"
   xmlns:rdf="http://www.w3.org/1999/02/22-rdf-syntax-ns#"
   xmlns:svg="http://www.w3.org/2000/svg"
   xmlns="http://www.w3.org/2000/svg"
   xmlns:sodipodi="http://sodipodi.sourceforge.net/DTD/sodipodi-0.dtd"
   xmlns:inkscape="http://www.inkscape.org/namespaces/inkscape"
   width="64mm"
   height="64mm"
   viewBox="0 0 64 64"
   version="1.1"
   id="svg8"
   inkscape:version="1.0.2 (e86c870879, 2021-01-15)"
   sodipodi:docname="favicon2.svg">
  <defs
     id="defs2" />
  <sodipodi:namedview
     id="base"
     pagecolor="#ffffff"
     bordercolor="#666666"
     borderopacity="1.0"
     inkscape:pageopacity="0.0"
     inkscape:pageshadow="2"
     inkscape:zoom="0.89632223"
     inkscape:cx="371.39559"
     inkscape:cy="365.44643"
     inkscape:document-units="mm"
     inkscape:current-layer="layer1"
     inkscape:document-rotation="0"
     showgrid="false"
     inkscape:window-width="1801"
     inkscape:window-height="1035"
     inkscape:window-x="465"
     inkscape:window-y="168"
     inkscape:window-maximized="0" />
  <metadata
     id="metadata5">
    <rdf:RDF>
      <cc:Work
         rdf:about="">
        <dc:format>image/svg+xml</dc:format>
        <dc:type
           rdf:resource="http://purl.org/dc/dcmitype/StillImage" />
        <dc:title></dc:title>
      </cc:Work>
    </rdf:RDF>
  </metadata>
  <g
     inkscape:label="Layer 1"
     inkscape:groupmode="layer"
     id="layer1">
    <path
       id="path76"
       style="fill:#000000;stroke-width:0.168014"
       d="M 8.7441087,64.659326 C 5.5405427,64.338408 2.3354632,63.339589 0.43263824,60.377731 0.74277192,59.194761 4.2664654,61.335882 2.0690328,59.055389 0.36239804,57.648086 0.82153656,56.615638 2.899946,57.347462 4.1227966,57.939386 5.1959216,59.340258 4.6262603,57.105583 3.7914472,54.089196 2.8749733,50.680547 4.0486672,47.469118 4.6097773,44.357835 6.7916946,41.702973 6.7785389,38.494556 4.928709,38.390751 2.2003828,37.941145 1.928124,35.35785 2.1901233,32.045663 4.4626597,29.278178 5.5778089,26.212002 7.4129843,21.460696 7.9823693,16.316071 9.2272723,11.394352 10.317389,7.8515842 13.212342,4.9126877 16.849664,4.6895154 19.063506,3.2099104 22.787959,7.4783138 23.60113,4.2547933 22.115996,3.5279566 20.355453,1.4888342 23.387435,1.3398556 c 2.492031,-1.00521102 5.471001,-2.3992645 6.016216,1.4815177 1.174524,1.7445054 1.857887,4.3297547 -1.071217,3.3192908 -2.112891,0.4715234 -0.661792,2.7156015 0.509906,3.5488549 3.102968,3.980482 5.544375,9.105282 10.46681,10.908776 2.44307,0.323563 3.605251,4.696795 5.451551,0.951657 1.448833,-2.11806 4.380143,-5.858596 0.908379,-7.243266 C 44.667589,12.899258 41.082476,13.323193 41.811033,10.6093 39.564402,8.9300327 36.703707,13.044878 35.137965,9.8282372 33.063806,9.3393307 31.981988,8.0518767 29.792895,8.0766484 26.710111,5.9239241 31.945734,6.866076 32.647613,4.7477509 c 1.65011,-0.4360242 3.035236,-0.1461486 3.982018,-1.7349181 1.704859,-1.1935757 4.114346,-2.95306331 6.00222,-1.270803 1.388202,-1.84735889 4.483161,-1.58355839 5.429885,0.164672 1.937903,-1.43476384 4.465188,-0.5408324 5.463835,1.2378688 C 56.871876,1.4361555 51.869038,5.6387298 52.582002,2.5822845 51.276485,-0.51275484 47.387077,4.2782628 46.937995,1.1297306 45.051803,-0.59045052 43.211423,3.03848 41.907473,1.8590502 39.508725,0.12236156 37.728279,3.4160651 35.846905,4.1667993 34.437538,5.0980606 32.098995,4.7711996 30.853606,6.6844477 27.29107,6.927589 31.453201,8.74529 32.925037,7.7697969 c 0.234513,2.0362741 2.871877,1.4670873 3.73222,3.0214161 2.025503,0.637845 2.643826,-2.4642589 4.33671,-0.50511 3.161045,-1.9073862 -0.326776,2.858801 2.660638,2.835249 2.462803,-1.053555 2.910532,3.805226 5.870647,1.884569 1.553399,-2.408119 5.127368,-0.454609 5.819302,-3.711044 2.930517,1.624471 5.935535,-3.5500345 2.260637,-4.4301449 0.0019,-1.6040558 0.02999,-4.1670555 -2.607397,-3.9228365 2.759516,0.6921321 2.406545,3.8806009 4.682214,5.1132182 0.710546,3.1542112 -2.721597,3.6747912 -4.581091,4.0521522 -0.879167,3.117572 -5.763722,1.039489 -6.328784,4.450907 0.936702,2.651462 2.194085,5.130886 3.746324,7.03701 0.415595,1.420168 3.304825,2.341313 0.245502,2.819452 -2.712542,1.708783 3.791575,1.900893 1.89809,3.769116 3.627384,0.783953 -3.602505,1.411986 -0.03309,2.901748 2.556324,0.787087 0.995398,2.531694 -0.101381,2.249188 1.482341,0.169557 1.93301,1.382593 1.111321,2.103262 1.566923,1.180977 2.233416,2.166526 0.146837,3.137113 1.822253,0.223783 3.522121,1.758061 0.789284,2.45524 2.068162,1.351104 5.52944,1.352917 2.498381,4.396315 -2.456457,0.222663 -2.331017,1.74137 -0.120145,2.328266 1.506929,0.07531 4.453813,1.726287 1.305477,2.171756 -3.068415,-0.107066 -0.63732,1.241636 0.03889,2.779924 -0.67311,1.927863 5.774613,-0.183194 2.693835,2.171777 -1.882187,0.401116 -3.819026,1.740047 -5.649772,1.450579 -2.285748,-1.161884 0.298414,2.196977 -2.229276,1.755415 -1.799385,0.188895 -4.898755,-3.094652 -3.188439,0.595995 -1.152354,1.935252 -5.074147,0.269786 -6.954342,2.125021 -3.014807,-0.90767 -5.910887,1.510241 -9.115499,0.735529 -4.611813,0.133732 -9.267602,0.08264 -13.84079,0.698563 -2.415303,1.703022 -5.455372,-0.214582 -8.052361,-0.180956 -1.71754,0.491675 -3.395894,1.335574 -5.214947,0.600921 z M 39.915458,63.062374 c -0.266377,-2.356071 -1.220181,-4.327841 -3.851548,-3.372315 -3.890259,0.220872 -7.785645,0.298282 -11.677201,0.488315 0.04023,1.951109 -0.280362,3.681448 2.278615,2.98728 4.416372,0.0061 8.835342,0.02239 13.250134,-0.103204 z M 23.761559,60.92172 c -0.288926,-0.326312 0.103449,0.994973 0,0 z m 0.16773,-1.592353 c 1.782675,0.663024 0.260858,-4.104505 0.570586,-5.444678 -0.174755,-5.143973 -1.158432,-10.450442 0.110442,-15.499419 1.053519,-3.498149 4.458564,-5.708112 7.919822,-4.98093 3.549476,0.257124 6.120251,3.601411 6.328802,7.201356 0.608843,6.128199 0.944789,12.287603 0.906831,18.452624 1.147827,0.602509 0.834285,0.317111 1.719061,-0.493018 2.712621,-0.424422 2.587045,-5.539919 3.354565,-8.028074 0.83438,-5.607152 -3.033264,-10.140619 -5.465074,-14.68013 -2.142723,-1.781776 -1.109213,-7.408693 -4.50599,-6.508899 -5.744008,0.288532 -11.510885,1.191622 -16.961654,3.153173 -3.722921,1.324113 -6.784698,4.079936 -10.4184198,5.563083 -0.038999,3.19081 -1.9825079,5.862098 -2.7204731,8.89935 -1.357612,3.40983 -0.8156929,7.254646 0.8978354,10.406272 0.36831,2.439322 2.3869189,0.764371 2.7403915,3.042299 0.7019549,-0.855643 1.655803,1.092819 1.4635328,-0.994729 0.9469232,-2.770947 1.3047752,-0.567701 1.7165572,0.915507 -0.218133,-1.556405 0.756773,-1.825233 1.350165,-0.352386 0.218284,-3.009528 2.133607,1.986689 2.339843,-1.093308 -0.610755,-3.070592 1.368879,0.358534 1.325068,0.183603 0.476206,-1.2591 1.642407,1.748353 1.734014,-0.801662 -0.121414,-2.883286 0.996949,-0.03664 1.383464,0.07573 0.475344,-1.919985 0.959592,2.18914 1.958907,-0.113577 0.730227,0.81707 -0.512261,3.902115 1.417638,1.214196 0.381618,-0.402397 0.496853,-0.903986 0.834086,-0.116435 z m -9.452296,-9.742738 c -1.610678,-0.03093 -3.221354,-0.06208 -4.8320312,-0.09303 -0.3095718,-1.351777 -0.046553,-2.170251 1.3955362,-1.890533 0.27767,-1.809905 0.281491,-3.993998 0.638934,-5.909241 -0.252329,-3.145886 2.161105,-6.548876 5.391425,-5.848135 3.271604,0.629601 3.910218,4.573383 3.556321,7.491843 0.49675,1.287433 -1.367396,4.659422 0.586376,4.552172 1.217952,-0.607068 1.316252,2.251487 0.17129,1.779414 -2.302684,0.01018 -4.606178,-0.04641 -6.907842,-0.08243 z m 7.166123,-0.513028 c -1.930096,-1.302863 -5.814157,-0.376852 -8.404393,-0.81707 -1.669797,-0.343775 -4.8388124,0.363296 -1.330495,0.677618 3.240007,0.152662 6.494169,0.295249 9.734888,0.139432 z m -2.689347,-3.16964 c 1.3462,-2.598317 -1.398884,-3.733881 -3.0026,-3.082236 0.160361,2.189444 -1.307111,5.838893 2.194273,4.928842 0.991531,0.08794 0.6883,-1.235793 0.808327,-1.846606 z m -3.516647,-0.732943 c 1.661156,-2.723378 -3.223632,-3.970386 -2.5501,-0.739253 -1.073517,2.10951 1.143646,4.085514 2.373141,2.712894 0.05899,-0.657873 0.11797,-1.315768 0.176959,-1.973641 z m 3.462401,-4.089768 c 0.796099,-2.186454 -3.328222,-5.26816 -2.737929,-1.468125 -1.023501,2.609837 0.479644,2.977245 2.654825,2.723988 0.196021,-0.161211 0.02565,-0.931892 0.08311,-1.255863 z m -3.274976,0.269236 c 0.216874,-1.595018 0.656454,-5.64422 -1.579701,-2.563795 -1.851222,1.889372 -0.0095,4.591213 1.579318,3.009345 -9e-6,-0.148388 6.61e-4,-0.297651 3.83e-4,-0.44555 z m 25.740092,-7.239094 c 3.146439,-1.954753 -4.149827,-1.890777 -1.126854,-3.653927 2.513567,-0.761705 -1.300526,-1.973194 1.184854,-2.35023 1.82738,-0.02605 2.547501,-3.673955 0.638539,-1.661986 -1.494567,2.324847 -6.551148,1.64613 -3.935026,5.515575 0.733567,1.535419 1.220297,4.684541 3.238487,2.150568 z M 8.3800323,30.698773 C 10.025943,27.743736 3.496235,30.494856 7.520097,30.966401 l 0.4571659,-0.07836 z M 37.70754,24.015167 c 0.0565,-2.807117 -4.97879,0.222155 -1.559281,0.506392 0.452566,-0.106453 1.561641,0.316887 1.559281,-0.506392 z M 24.462739,23.583864 c 2.933786,-2.34575 -4.670136,-1.92599 -1.721063,0.222522 0.571646,0.186655 1.200285,0.06331 1.721063,-0.222522 z M 13.133847,21.970955 c 1.387112,-3.046044 -5.1570752,-2.244912 -1.661624,-0.0635 0.489028,0.257126 1.189725,0.504031 1.661624,0.0635 z m 4.127694,-5.371808 c -0.882428,-1.993935 -4.084334,0.511867 -0.941828,0.402969 0.248812,-0.0635 1.038057,0.170778 0.941828,-0.402969 z m 14.838711,-0.367082 c 0.527202,-3.374372 -5.21941,0.227447 -1.142371,0.430936 0.39826,0.004 0.939255,0.02362 1.142371,-0.430936 z m -8.972106,-3.830141 c -0.680056,-2.5965849 -3.441433,0.421533 -0.820432,0.435475 0.239934,0.06168 0.829619,-0.03644 0.820432,-0.435475 z M 13.54592,10.949921 c 2.293906,-2.0611075 -3.7370653,-0.594692 -0.556453,0.167522 l 0.556453,-0.167318 z m 6.26413,-5.0465961 c 0.192706,-1.6840504 -4.689535,-0.3726793 -1.099207,0.2184505 0.371354,0.023198 0.779107,0.012264 1.099207,-0.2184505 z" />
  </g>
</svg>
