<?xml version="1.0" encoding="UTF-8" standalone="no"?>
<svg
   xmlns:dc="http://purl.org/dc/elements/1.1/"
   xmlns:cc="http://creativecommons.org/ns#"
   xmlns:rdf="http://www.w3.org/1999/02/22-rdf-syntax-ns#"
   xmlns:svg="http://www.w3.org/2000/svg"
   xmlns="http://www.w3.org/2000/svg"
   xmlns:sodipodi="http://sodipodi.sourceforge.net/DTD/sodipodi-0.dtd"
   xmlns:inkscape="http://www.inkscape.org/namespaces/inkscape"
   width="32"
   height="32"
   viewBox="0 0 8.466666 8.466666"
   version="1.1"
   id="svg8"
   sodipodi:docname="favicon5.svg"
   inkscape:version="1.0.2 (e86c870879, 2021-01-15)">
  <defs
     id="defs2" />
  <sodipodi:namedview
     id="base"
     pagecolor="#ffffff"
     bordercolor="#666666"
     borderopacity="1.0"
     inkscape:pageopacity="0.0"
     inkscape:pageshadow="2"
     inkscape:zoom="7.1705779"
     inkscape:cx="52.868987"
     inkscape:cy="27.846174"
     inkscape:document-units="mm"
     inkscape:current-layer="layer1"
     inkscape:document-rotation="0"
     showgrid="false"
     inkscape:window-width="1801"
     inkscape:window-height="1035"
     inkscape:window-x="465"
     inkscape:window-y="168"
     inkscape:window-maximized="0"
     inkscape:snap-global="false"
     units="px" />
  <metadata
     id="metadata5">
    <rdf:RDF>
      <cc:Work
         rdf:about="">
        <dc:format>image/svg+xml</dc:format>
        <dc:type
           rdf:resource="http://purl.org/dc/dcmitype/StillImage" />
        <dc:title></dc:title>
      </cc:Work>
    </rdf:RDF>
  </metadata>
  <g
     inkscape:label="Layer 1"
     inkscape:groupmode="layer"
     id="layer1">
    <path
       id="path76"
       style="fill:#ff0000;stroke-width:0.0216956"
       d="M 1.1317477,8.2827308 C 0.7416602,8.2529218 0.14968624,8.0792235 0.06796981,7.7028745 0.31819272,7.7508828 0.41940425,7.6745431 0.17997661,7.5100832 -0.05210376,7.0995672 0.59983983,7.5662903 0.6072595,7.4136152 0.46768157,6.9449524 0.3519241,6.4370336 0.55053365,5.9659722 0.60508773,5.6651196 1.03447,5.1605087 0.77869217,4.9700095 0.35478926,4.9968645 0.07749833,4.5596818 0.33256413,4.2055481 0.58680549,3.7159525 0.84434286,3.2213024 0.94780496,2.6751936 1.1171124,2.0982278 1.0864823,1.404938 1.5781755,0.97403729 1.9449121,0.64701583 2.4677353,0.61235287 2.9033126,0.80936026 3.4146778,0.76350025 2.5461595,0.38748972 3.0031187,0.29192883 3.3511282,0.12723056 3.8726731,0.04034338 3.9191761,0.56000922 4.1263029,0.82782744 3.8900672,0.97042226 3.6396609,0.92462257 3.5204756,1.3020061 4.0930454,1.5808296 4.2355627,1.9381691 4.4989055,2.2966885 4.8352741,2.640562 5.2842802,2.7562933 5.5069587,2.9939492 5.840321,3.1631936 5.9692754,2.7317289 6.3260336,2.4186804 6.2846583,1.8765249 5.7664579,1.7900777 5.4304772,1.751014 5.5535045,1.2331065 5.1474938,1.4408092 4.7141108,1.6937935 4.4586387,1.1459461 4.017865,1.1434684 3.6155945,1.1029635 3.8865993,0.85855362 4.1376747,0.85732855 4.4452926,0.66271432 4.8047436,0.58239992 5.1028141,0.32543427 5.3987683,0.16024131 5.6274851,0.40653375 5.8857317,0.18434644 6.2049129,0.15030157 6.3302308,0.43815743 6.6339384,0.27045782 6.852738,0.28179117 7.0990399,0.53850254 7.1790409,0.50111012 6.8470596,0.81613077 6.9162565,0.06122419 6.5097883,0.35591237 6.1983624,0.55632176 6.0920905,-0.02614504 5.7768015,0.30745976 5.514098,0.45641381 5.1720051,0.13860006 4.9473001,0.49035033 4.648496,0.73394166 4.2225257,0.77666451 3.924716,0.98123055 3.7826538,1.2264171 4.4304836,1.0132975 4.4032657,1.2394415 4.694287,1.3922028 4.9552746,1.5990849 5.2481401,1.334251 5.4147326,1.4478412 5.6746469,1.261457 5.5708735,1.6001852 c 0.04752,0.293499 0.503814,0.082028 0.6178481,0.4102345 C 6.5074039,2.1805952 6.7551711,1.7357902 7.1109402,1.7758252 7.2841159,1.6716466 7.2638956,1.489368 7.501189,1.5804546 7.9046998,1.5046535 7.8381943,1.0335002 7.5869282,0.90609748 7.7194338,0.67804531 7.255047,0.3974978 7.3071519,0.51105937 7.5675307,0.68682878 7.7432018,1.0302485 7.871984,1.2718286 7.7656278,1.6727476 7.2263405,1.5597868 7.0256166,1.8667608 6.5989987,1.859581 6.234998,2.195765 6.576587,2.5755161 6.6417348,2.8892938 7.1381103,3.1908052 7.0628909,3.4306661 6.5896398,3.533351 7.1534176,3.69376 7.2426275,3.8528249 7.1214101,3.971665 7.5186882,3.987705 7.1968299,4.0819888 6.749282,4.2411552 7.7163614,4.4042585 7.2339853,4.5849465 7.1368789,4.540342 7.5369313,4.7247958 7.3244986,4.8485735 7.5216447,4.9235245 7.5915484,5.1897277 7.3435748,5.2448588 7.579277,5.2159714 7.7661219,5.528222 7.447525,5.5550719 7.77845,5.5966391 8.1747243,5.999372 7.6711309,6.1282331 7.1577259,6.4025385 8.4412721,6.431356 8.0016749,6.6669765 7.5507604,6.6120462 7.8803114,6.9343323 7.9723919,7.1206125 8.1287119,7.1476991 8.6267167,7.1367464 8.246505,7.3156942 7.9844748,7.4370671 7.6348856,7.4905243 7.4094935,7.5078966 7.4904905,8.0102136 6.8050693,7.4123098 6.7754684,7.6479982 6.9081986,8.1054416 6.1234599,7.78482 5.9136243,8.0519209 5.4512256,7.9665375 5.0070537,8.2479818 4.5388955,8.1480839 3.9864623,8.1599271 3.4319994,8.16068 2.8831327,8.2309303 2.4687288,8.4988549 1.9904175,8.049723 1.5660027,8.2829203 1.4254177,8.3225685 1.2705441,8.3389847 1.1317477,8.2827274 Z M 5.2466865,8.0839165 C 5.2678751,7.6139553 4.8005806,7.5928032 4.4496528,7.6713665 4.0322173,7.6891437 3.6144671,7.6989598 3.1970907,7.7181689 3.0627389,8.2881806 3.7101498,8.0528971 4.0442095,8.0966268 c 0.4008504,7.04e-5 0.80177,-0.00207 1.202477,-0.012709 z M 3.114495,7.8120074 c -0.046719,-0.034501 0.032091,0.1355853 0,0 z M 3.1367917,7.6108815 C 3.4027018,7.4518744 3.126498,6.9174998 3.1957861,6.6172829 3.1624514,6.0172806 3.153778,5.8110715 3.3958584,5.2391994 c 0.3396184,-0.564606 1.0748254,-0.5412049 1.44474,-0.041326 0.2371324,0.433648 0.2841738,0.520261 0.3473039,0.9944976 0.028686,0.4613181 0.042747,0.9235652 0.039416,1.3857489 0.503669,0.0654 0.5962849,-0.6265043 0.6527924,-1.0133067 C 6.0466877,5.8444035 5.5089783,5.236015 5.1779057,4.6473674 4.9135637,4.3443265 4.9860995,3.6078739 4.3704193,3.836953 3.3848824,3.9138653 2.3597582,4.0809295 1.5269126,4.6385936 1.1874989,4.8137411 0.86420134,4.9220577 0.87802518,5.3548056 0.65448882,5.8850978 0.36359194,6.4687753 0.58717695,7.0488167 0.66875133,7.4134085 0.96822131,7.7201557 1.2742846,7.7363958 1.230637,7.5098396 1.4788639,7.3365088 1.4871682,7.6633945 c -0.00196,0.1968009 0.039518,-0.2675014 0.16714,-0.030846 0.01512,0.082704 0.1171349,-0.1998682 0.2380778,0.036061 0.194958,0.049988 0.00628,-0.5059507 0.2408909,-0.1399162 0.1016855,0.06548 0.3466358,0.1333943 0.2664015,-0.1569686 0.056274,-0.1900281 0.1653146,0.2572799 0.2297579,0.050813 0.08329,0.286625 0.2908718,-0.089754 0.2444805,0.2328893 C 2.8620818,8.0069095 3.0802599,7.3901515 3.1367916,7.610878 Z M 1.8899883,6.3793228 C 1.6617478,6.4194581 0.947399,6.3718438 1.3723045,6.1215115 1.5491059,5.9066593 1.4540145,5.4073255 1.5588782,5.0865725 1.6560465,4.5966814 2.4151489,4.4547206 2.6188828,4.9429884 2.8819122,5.3121511 2.5113509,5.8996099 2.7794154,6.1656003 3.0794473,6.2191992 2.7873059,6.5118382 2.573864,6.38978 2.3458838,6.3879103 2.117932,6.3829161 1.8899882,6.3793242 Z M 2.8360045,6.3151869 C 2.4324892,6.1322673 1.9677628,6.2791847 1.541109,6.2005323 c -0.5013086,0.069289 0.2733581,0.1276704 0.4112428,0.1130088 0.2943935,0.010466 0.5892749,0.014973 0.8836527,0.00162 z M 2.4813053,5.9145554 C 2.7402925,5.5217414 1.905602,5.3036708 2.0684891,5.815029 1.9109861,6.1943076 2.5360037,6.3412476 2.4813053,5.9145554 Z M 2.0171609,5.8216434 C 2.1926393,5.2667849 1.3838226,5.553057 1.6744476,5.9992662 1.8422361,6.2726141 2.0703111,6.0665452 2.0171609,5.8216434 Z M 2.4746148,5.305358 C 2.6001407,4.9844768 1.9883267,4.6895563 2.0918078,5.1781811 1.8888605,5.4669897 2.5784511,5.6314816 2.4746148,5.305358 Z M 2.0422744,5.3390624 C 2.1051284,5.1590823 2.0744205,4.6498598 1.8339955,5.015063 1.565164,5.1812686 1.8943757,5.6948385 2.0422744,5.3390624 Z M 5.4408085,4.4270401 C 5.818849,4.2173319 4.8176829,4.096378 5.380972,3.9270155 5.4188035,3.7972396 5.2351974,3.635106 5.5322814,3.6482856 5.7703817,3.551378 5.6573772,3.231044 5.4913256,3.509558 5.2027299,3.6712954 4.6833361,3.8413742 5.0487054,4.2355948 5.1035994,4.4221273 5.2484974,4.708208 5.440811,4.4270401 Z M 1.0869986,3.9928898 c 0.1815169,-0.3869688 -0.62742507,0.035495 -0.0902464,0.029922 0.0330682,-8.61e-4 0.0609861,-0.01689 0.0902464,-0.029922 z m 3.872038,-0.8415195 c -0.012224,-0.3813974 -0.6620967,0.1055191 -0.1484733,0.062818 0.049142,0.00577 0.15422,0.014722 0.1484733,-0.062818 z M 3.2106948,3.0956537 C 3.572226,2.7528271 2.5215978,2.9344499 3.0411414,3.1342746 c 0.058881,0.00386 0.1178543,-0.011592 0.1695534,-0.038621 z M 1.7153782,2.8908585 C 1.9168007,2.5101553 1.0452288,2.6385571 1.4960412,2.882682 c 0.065271,0.032552 0.1559374,0.063863 0.219337,0.00818 z M 2.2607794,2.212691 C 2.1616144,1.9534226 1.7518792,2.297662 2.1364139,2.263505 2.1637289,2.256445 2.2756078,2.284576 2.2607794,2.212691 Z M 4.2196039,2.167706 c 0.07418,-0.4254366 -0.6606324,0.05277 -0.1508413,0.054328 0.049821,0.00215 0.1263112,0.00157 0.1508413,-0.054328 z M 3.0356117,1.6830561 c -0.1924499,-0.4224672 -0.4238782,0.2656599 0,0 z M 1.7708486,1.498749 C 2.0420383,1.2314853 1.285992,1.479095 1.7200436,1.513354 1.7369306,1.508444 1.7540066,1.503684 1.7708486,1.498749 Z M 2.5982388,0.86186069 c -0.030962,-0.2482027 -0.5597743,0.006643 -0.1451223,0.0274916 l 0.075089,-0.001717 z"
       sodipodi:nodetypes="ccccccccccccccccccccccccccccccccccccccccccccccccccccccccccccccccccccccccccccccccccccccscccccsssccssccccccccccccccccccccccccccccccccccccccccccccc" />
  </g>
</svg>
