<?xml version="1.0" encoding="UTF-8" standalone="no"?>
<svg
   xmlns:dc="http://purl.org/dc/elements/1.1/"
   xmlns:cc="http://creativecommons.org/ns#"
   xmlns:rdf="http://www.w3.org/1999/02/22-rdf-syntax-ns#"
   xmlns:svg="http://www.w3.org/2000/svg"
   xmlns="http://www.w3.org/2000/svg"
   xmlns:sodipodi="http://sodipodi.sourceforge.net/DTD/sodipodi-0.dtd"
   xmlns:inkscape="http://www.inkscape.org/namespaces/inkscape"
   width="64"
   height="64"
   viewBox="0 0 16.933332 16.933332"
   version="1.1"
   id="svg8"
   sodipodi:docname="favicon4.svg"
   inkscape:version="1.0.2 (e86c870879, 2021-01-15)">
  <defs
     id="defs2" />
  <sodipodi:namedview
     id="base"
     pagecolor="#ffffff"
     bordercolor="#666666"
     borderopacity="1.0"
     inkscape:pageopacity="0.0"
     inkscape:pageshadow="2"
     inkscape:zoom="7.1705779"
     inkscape:cx="104.73043"
     inkscape:cy="39.002876"
     inkscape:document-units="mm"
     inkscape:current-layer="layer1"
     inkscape:document-rotation="0"
     showgrid="false"
     inkscape:window-width="1801"
     inkscape:window-height="1035"
     inkscape:window-x="465"
     inkscape:window-y="168"
     inkscape:window-maximized="0"
     inkscape:snap-global="false"
     units="px" />
  <metadata
     id="metadata5">
    <rdf:RDF>
      <cc:Work
         rdf:about="">
        <dc:format>image/svg+xml</dc:format>
        <dc:type
           rdf:resource="http://purl.org/dc/dcmitype/StillImage" />
        <dc:title></dc:title>
      </cc:Work>
    </rdf:RDF>
  </metadata>
  <g
     inkscape:label="Layer 1"
     inkscape:groupmode="layer"
     id="layer1">
    <path
       id="path76"
       style="fill:#ff0000;stroke-width:0.0440253"
       d="M 2.2232762,16.663607 C 1.4329251,16.603024 0.2335344,16.250004 0.06796981,15.485122 0.57494318,15.582693 0.78000653,15.427542 0.29490532,15.093298 -0.17530967,14.258976 1.1455847,15.207532 1.1606176,14.897239 0.87782059,13.944741 0.64328589,12.91246 1.0456861,11.955087 1.1562174,11.343642 2.0261832,10.318084 1.5079551,9.9309184 0.64909095,9.9854979 0.08727541,9.096979 0.6040609,8.3772469 1.119176,7.3822055 1.6409691,6.3768916 1.8505923,5.2669943 2.1936238,4.0943841 2.1315646,2.6853598 3.1277778,1.8096085 3.870818,1.1449786 4.9301032,1.0745305 5.8126207,1.4749232 6.8486912,1.3817185 5.0889975,0.61752449 6.0148366,0.42330902 6.7199341,0.08858055 7.7766294,-0.08800669 7.8708486,0.96814862 8.2905054,1.5124554 7.8118713,1.8022614 7.3045265,1.7091793 7.0630466,2.4761638 8.2231228,3.0428374 8.5118752,3.7690849 9.0454307,4.4977304 9.7269427,5.19661 10.636668,5.4318193 11.087834,5.9148249 11.763255,6.2587929 12.024528,5.3818952 12.747351,4.7456635 12.663521,3.6438009 11.613602,3.4681077 10.932876,3.3887157 11.18214,2.3361341 10.359527,2.7582636 9.4814553,3.2724222 8.9638467,2.1589915 8.0708009,2.1539558 7.2557659,2.0716348 7.8048451,1.5749025 8.3135456,1.5724127 8.9368063,1.1768838 9.6650852,1.0136549 10.269002,0.4914046 10.868631,0.15567073 11.332031,0.65622907 11.855261,0.20466137 12.50195,0.13546947 12.755855,0.72050022 13.371193,0.3796719 13.8145,0.4027055 14.313529,0.92443902 14.475618,0.84844362 13.802995,1.4886834 13.943194,-0.04556908 13.119654,0.55334751 12.488678,0.96065432 12.273362,-0.22313603 11.634559,0.45487368 11.102299,0.75760402 10.409189,0.11168761 9.9539171,0.82657572 9.348514,1.3216444 8.4854612,1.4084732 7.8820728,1.8242279 c -0.2878303,0.4983108 1.0247291,0.065172 0.9695833,0.5247813 0.5896344,0.310468 1.1184181,0.7309298 1.7117889,0.1926883 0.337531,0.2308577 0.86414,-0.147945 0.653886,0.5404778 0.09628,0.5964996 1.020771,0.1667113 1.251814,0.8337498 0.645678,0.3458603 1.147676,-0.5581499 1.868495,-0.4767838 0.350869,-0.2117297 0.309901,-0.5821881 0.790678,-0.3970661 0.817548,-0.1540561 0.682802,-1.1116159 0.173715,-1.3705458 0.268468,-0.4634873 -0.67242,-1.03366475 -0.566851,-0.80286518 0.52755,0.35722918 0.883475,1.05518658 1.144399,1.54616758 -0.215487,0.8148173 -1.30813,0.5852388 -1.714814,1.2091247 -0.864365,-0.014592 -1.601862,0.6686596 -0.909773,1.4404559 0.131995,0.6377136 1.137695,1.2504974 0.985294,1.7379845 -0.958848,0.2086942 0.183415,0.5347052 0.364162,0.8579846 -0.245597,0.2415275 0.559323,0.2741269 -0.09279,0.4657468 -0.906771,0.3234856 1.052616,0.6549725 0.07528,1.022198 -0.196746,-0.090653 0.613795,0.2842261 0.183388,0.5357888 0.399435,0.1523283 0.541066,0.6933529 0.03865,0.8053999 0.477553,-0.05871 0.856117,0.5759 0.210612,0.630469 0.670483,0.08448 1.473369,0.902984 0.453045,1.164878 -1.040203,0.557491 1.560373,0.616059 0.669711,1.094928 -0.913592,-0.111639 -0.245893,0.543367 -0.05933,0.921958 0.316718,0.05505 1.325719,0.03279 0.555377,0.396479 -0.530896,0.246675 -1.239194,0.35532 -1.695858,0.390627 0.164107,1.020896 -1.224616,-0.194268 -1.28459,0.284739 0.268923,0.929696 -1.321026,0.278073 -1.746171,0.820922 -0.93686,-0.173531 -1.836791,0.398469 -2.7853201,0.195439 -1.1192777,0.02407 -2.2426678,0.0256 -3.3547193,0.168375 C 4.9321162,17.102852 3.963016,16.190048 3.1031147,16.663992 2.8182773,16.744572 2.5044899,16.777936 2.2232762,16.6636 Z M 10.5605,16.259542 c 0.04293,-0.955137 -0.9038494,-0.998126 -1.6148595,-0.838456 -0.8457607,0.03613 -1.6921589,0.05608 -2.5377998,0.09512 -0.2722083,1.158477 1.0395024,0.680293 1.7163363,0.769168 0.8121578,1.43e-4 1.6244558,-0.0042 2.436323,-0.02583 z M 6.2404947,15.706921 c -0.094656,-0.07012 0.06502,0.27556 0,0 z m 0.045175,-0.408763 c 0.538757,-0.323162 -0.020856,-1.409211 0.1195278,-2.019364 -0.067539,-1.219429 -0.085112,-1.638523 0.4053639,-2.800781 0.6880963,-1.1474905 2.1776896,-1.0999309 2.9271687,-0.08399 0.4804509,0.881335 0.5757609,1.057365 0.7036679,2.021191 0.05812,0.937571 0.08661,1.87703 0.07986,2.81636 1.020477,0.132918 1.208125,-1.273291 1.322614,-2.059418 0.3375,-1.464142 -0.751946,-2.700615 -1.422728,-3.8969671 C 9.8855642,8.6592966 10.032528,7.1625495 8.7851064,7.6281238 6.7883231,7.7844384 4.7113324,8.1239754 3.0239147,9.2573574 2.3362331,9.6133226 1.6812041,9.8334624 1.7092124,10.712968 1.2563083,11.79072 0.66692595,12.976971 1.1199286,14.155832 c 0.1652768,0.740987 0.772029,1.364412 1.3921399,1.397418 -0.088434,-0.460447 0.4144954,-0.81272 0.4313206,-0.148366 -0.00397,0.399973 0.080067,-0.543663 0.3386402,-0.06269 0.030635,0.168085 0.2373255,-0.406207 0.4823662,0.07329 0.3950019,0.101594 0.012725,-1.028281 0.488066,-0.284362 0.2060236,0.133079 0.7023142,0.271107 0.5397525,-0.319019 0.1140156,-0.386208 0.3349419,0.522889 0.4655095,0.103272 0.1687536,0.582529 0.5893317,-0.182413 0.4953388,0.473318 -0.023979,0.714344 0.4180691,-0.539139 0.5326072,-0.09054 z M 3.7595377,12.79517 C 3.2971026,12.87674 1.8497698,12.77997 2.7106653,12.271201 3.0688803,11.834541 2.8762168,10.819708 3.0886799,10.167818 3.2855513,9.1721761 4.8235586,8.8836586 5.2363413,9.8760014 5.7692617,10.626278 5.0184722,11.820214 5.5615942,12.360806 c 0.6078908,0.108933 0.015987,0.703685 -0.4164649,0.455617 -0.4619077,-0.0038 -0.923758,-0.01395 -1.3855918,-0.02125 z m 1.9167111,-0.130348 c -0.8175572,-0.371761 -1.7591333,-0.07317 -2.623571,-0.233021 -1.0156948,0.140821 0.5538474,0.259474 0.8332137,0.229676 0.5964668,0.02127 1.1939221,0.03043 1.7903573,0.0033 z M 4.9575973,11.850589 C 5.4823279,11.052244 3.7911724,10.609043 4.1211958,11.648314 3.8020811,12.41915 5.068421,12.717787 4.9575973,11.850589 Z m -0.940397,-0.188832 c 0.3555346,-1.12768 -1.2831983,-0.545868 -0.6943668,0.360996 0.339954,0.555545 0.8020539,0.136736 0.6943668,-0.360996 z M 4.9440418,10.612472 C 5.1983681,9.9603214 3.9587798,9.3609327 4.1684415,10.354001 c -0.4111888,0.586967 0.9859816,0.921276 0.7756003,0.258471 z m -0.8759592,0.0685 C 4.1954301,10.315185 4.1332133,9.2802544 3.6460914,10.022484 3.1014153,10.360276 3.768427,11.404042 4.0680826,10.680972 Z M 10.953808,8.8274015 C 11.719751,8.401196 9.6913014,8.1553724 10.832574,7.8111645 10.909224,7.5474113 10.537222,7.2178952 11.13914,7.2446812 11.621552,7.0477286 11.392595,6.3966902 11.05616,6.9627347 10.47144,7.2914456 9.4191031,7.6371093 10.159373,8.4383131 c 0.11122,0.3791037 0.404796,0.9605268 0.79444,0.3890884 z M 2.1326107,7.9450457 c 0.367769,-0.7864653 -1.27121772,0.07214 -0.182847,0.060813 0.066999,-0.00175 0.1235631,-0.034327 0.182847,-0.060813 z M 9.9776962,6.2347635 C 9.9529304,5.4596212 8.6362308,6.4492178 9.6768765,6.362433 c 0.099565,0.011733 0.3124631,0.02992 0.3008197,-0.1276695 z M 6.4354038,6.1215265 C 7.1678975,5.4247746 5.0392334,5.7939 6.0918739,6.2000186 6.2111715,6.2078686 6.330657,6.1764586 6.4354038,6.1215265 Z M 3.4057624,5.705306 C 3.813862,4.9315748 2.0479815,5.1925353 2.9613665,5.6886883 3.0936105,5.7548463 3.2773094,5.8184819 3.4057624,5.705306 Z M 4.5107926,4.327016 C 4.3098762,3.8000857 3.4797167,4.4997092 4.2588174,4.4302892 4.3141592,4.4159348 4.5408362,4.4731124 4.5107926,4.327016 Z M 8.4795413,4.2355906 C 8.629836,3.3709442 7.1410427,4.34284 8.1739237,4.3460057 c 0.1009427,0.00436 0.2559175,0.00319 0.3056176,-0.1104151 z M 6.0806703,3.2505999 c -0.3899203,-0.8586114 -0.8588142,0.5399202 0,0 z M 3.5181502,2.8760189 c 0.549454,-0.5431797 -0.9823615,-0.039944 -0.1029347,0.029682 0.034215,-0.00997 0.068812,-0.01965 0.1029347,-0.029682 z M 5.1945148,1.5816237 C 5.1317831,1.077183 4.0603634,1.5951249 4.9004844,1.6374968 l 0.152137,-0.00349 z"
       sodipodi:nodetypes="ccccccccccccccccccccccccccccccccccccccccccccccccccccccccccccccccccccccccccccccccccccccscccccsssccssccccccccccccccccccccccccccccccccccccccccccccc" />
  </g>
</svg>
